HIERARCHY
ROOT Hips
{
  OFFSET 53.3366 91.6038 4.82772
  CHANNELS 6 Xposition Yposition Zposition Zrotation Xrotation Yrotation
  JOINT spine
  {
    OFFSET 0 6.84637 0.3937
    CHANNELS 3 Zrotation Xrotation Yrotation
    JOINT spine1
    {
      OFFSET 0 9.49621 0
      CHANNELS 3 Zrotation Xrotation Yrotation
      JOINT spine2
      {
        OFFSET 0 9.09909 0
        CHANNELS 3 Zrotation Xrotation Yrotation
        JOINT Neck
        {
          OFFSET 0 23.3612 1.11378
          CHANNELS 3 Zrotation Xrotation Yrotation
          JOINT Head
          {
            OFFSET 0 7.05802 0
            CHANNELS 3 Zrotation Xrotation Yrotation
            End Site
            {
              OFFSET 0 17.0844 -5.63419
            }
          }
        }
        JOINT RightShoulder
        {
          OFFSET -3.83136 9.82631 -0.533491
          CHANNELS 3 Zrotation Xrotation Yrotation
          JOINT RightArm
          {
            OFFSET 0 12.8881 0
            CHANNELS 3 Zrotation Xrotation Yrotation
            JOINT RightArmRoll
            {
              OFFSET 0 6.50617 0
              CHANNELS 3 Zrotation Xrotation Yrotation
              JOINT RightForeArm
              {
                OFFSET 0 18.9501 0
                CHANNELS 3 Zrotation Xrotation Yrotation
                JOINT RightForeArmRoll
                {
                  OFFSET 0 7.30093 0
                  CHANNELS 3 Zrotation Xrotation Yrotation
                  JOINT RightHand
                  {
                    OFFSET 0 14.6514 0
                    CHANNELS 3 Zrotation Xrotation Yrotation
                    End Site
                    {
                      OFFSET 0 0 0
                    }
                  }
                }
              }
            }
          }
        }
        JOINT LeftShoulder
        {
          OFFSET 3.83136 9.82631 -0.533491
          CHANNELS 3 Zrotation Xrotation Yrotation
          JOINT LeftArm
          {
            OFFSET 0 12.8881 0
            CHANNELS 3 Zrotation Xrotation Yrotation
            JOINT LeftArmRoll
            {
              OFFSET 0 6.50617 0
              CHANNELS 3 Zrotation Xrotation Yrotation
              JOINT LeftForeArm
              {
                OFFSET 0 18.9501 0
                CHANNELS 3 Zrotation Xrotation Yrotation
                JOINT LeftForeArmRoll
                {
                  OFFSET 0 7.30093 0
                  CHANNELS 3 Zrotation Xrotation Yrotation
                  JOINT LeftHand
                  {
                    OFFSET 0 14.6514 0
                    CHANNELS 3 Zrotation Xrotation Yrotation
                    End Site
                    {
                      OFFSET 0 0 0
                    }
                  }
                }
              }
            }
          }
        }
      }
    }
  }
  JOINT RightUpLeg
  {
    OFFSET -6.06837 -1.11278 -0.933477
    CHANNELS 3 Zrotation Xrotation Yrotation
    JOINT RightUpLegRoll
    {
      OFFSET 0 17.1796 0
      CHANNELS 3 Zrotation Xrotation Yrotation
      JOINT RightLeg
      {
        OFFSET 0 -21.2743 0
        CHANNELS 3 Zrotation Xrotation Yrotation
        JOINT RightLegRoll
        {
          OFFSET 0 21.3439 0
          CHANNELS 3 Zrotation Xrotation Yrotation
          JOINT RightFoot
          {
            OFFSET 0 17.7652 0
            CHANNELS 3 Zrotation Xrotation Yrotation
            JOINT RightToeBase
            {
              OFFSET 0 14.8508 0
              CHANNELS 3 Zrotation Xrotation Yrotation
              End Site
              {
                OFFSET 0.0062947 7.19214 -0.829005
              }
            }
          }
        }
      }
    }
  }
  JOINT LeftUpLeg
  {
    OFFSET 6.06837 -1.11278 -0.933477
    CHANNELS 3 Zrotation Xrotation Yrotation
    JOINT LeftUpLegRoll
    {
      OFFSET 0 17.1797 0
      CHANNELS 3 Zrotation Xrotation Yrotation
      JOINT LeftLeg
      {
        OFFSET 0 21.2742 0
        CHANNELS 3 Zrotation Xrotation Yrotation
        JOINT LeftLegRoll
        {
          OFFSET 0 21.5412 0
          CHANNELS 3 Zrotation Xrotation Yrotation
          JOINT LeftFoot
          {
            OFFSET 0 17.5679 0
            CHANNELS 3 Zrotation Xrotation Yrotation
            JOINT LeftToeBase
            {
              OFFSET 0 14.8508 0
              CHANNELS 3 Zrotation Xrotation Yrotation
              End Site
              {
                OFFSET -0.0282102 7.19213 -0.829005
              }
            }
          }
        }
      }
    }
  }
}
MOTION
Frames: 12
Frame Time: 0.00208333
54.2021 91.4479 5.23318 -4.6261 6.12154 -0.277318 -1.14987 -3.98107 0.343977 -2.27297 -3.96792 0.761409 -2.28024 -2.32367 0.799633 36.7081 23.3336 -15.1921 -15.9139 -1.81193 -2.36748 17.7671 -24.4378 -25.5029 -17.8446 43.2843 111.929 -1.40191e-007 1.62837e-007 -4.87659e-006 -10.0926 12.9192 1.32692 2.14827e-006 -9.02842e-007 -2.99999 8.02916 -4.95147 0.697692 -63.8921 5.09658 -2.25075 -104.23 9.971 -26.7497 -1.26672e-005 2.6983e-008 3.17021e-006 -6.82865 0.0572094 0.321252 2.58776e-005 -3.16577e-006 3.03046 -8.0289 -4.95146 -0.6977 -178.435 7.73689 -3.17431 -180 7.01589e-015 179.126 178.364 4.01427 179.951 5.17106e-006 1.72918e-006 0.0397492 -18.833 68.1645 19.6614 8.13649 25.2327 -3.48773 -168.003 8.45643 -3.76822 4.54188e-006 -4.6773e-006 -0.897673 -1.63386 -7.72758 0.108302 -2.56043e-006 -2.56676e-006 -0.151382 19.8901 69.4656 -20.8322 -8.13649 25.2327 3.48773 
54.1887 91.4508 5.23521 -4.62818 6.13068 -0.284207 -1.15511 -3.98611 0.344633 -2.28336 -3.97808 0.762481 -2.29064 -2.33384 0.80084 36.6465 23.3314 -15.1897 -15.8208 -1.75228 -2.37363 17.6078 -24.466 -25.5957 -18.1473 43.3338 112.344 -1.40191e-007 1.62837e-007 -4.87659e-006 -10.1286 13.0325 1.35291 2.14827e-006 -9.02842e-007 -2.99999 8.02916 -4.95147 0.697692 -63.9519 5.07003 -2.22559 -104.151 9.97536 -26.7339 -1.26672e-005 2.6983e-008 3.17021e-006 -6.86044 0.0571883 0.325982 2.58776e-005 -3.16577e-006 3.0311 -8.0289 -4.95146 -0.6977 -178.427 7.7471 -3.18114 -180 7.01589e-015 179.126 178.367 4.01851 179.951 5.17106e-006 1.72918e-006 0.0397339 -18.8322 68.1637 19.6606 8.13649 25.2327 -3.48773 -167.997 8.45263 -3.77009 4.54188e-006 -4.6773e-006 -0.897531 -1.63243 -7.71262 0.10814 -2.56043e-006 -2.56676e-006 -0.151522 19.8879 69.4633 -20.8298 -8.13649 25.2327 3.48773 
54.186 91.4522 5.24081 -4.62993 6.13961 -0.29175 -1.16033 -3.99108 0.345206 -2.29372 -3.98812 0.763364 -2.30099 -2.34389 0.801852 36.5808 23.3268 -15.1857 -15.726 -1.68753 -2.37971 17.447 -24.4925 -25.6871 -18.442 43.3845 112.751 -1.40191e-007 1.62837e-007 -4.87659e-006 -10.1631 13.1483 1.37904 2.14827e-006 -9.02842e-007 -2.99999 8.02916 -4.95147 0.697692 -64.0111 5.04198 -2.19973 -104.072 9.98053 -26.7166 -1.26672e-005 2.6983e-008 3.17021e-006 -6.89318 0.0571692 0.330936 2.58776e-005 -3.16577e-006 3.03176 -8.0289 -4.95146 -0.6977 -178.42 7.7573 -3.18776 -180 7.01589e-015 179.126 178.37 4.02278 179.951 5.17106e-006 1.72918e-006 0.0397186 -18.8315 68.1628 19.6598 8.13649 25.2327 -3.48773 -167.991 8.4481 -3.7718 4.54188e-006 -4.6773e-006 -0.897394 -1.63107 -7.69693 0.107974 -2.56043e-006 -2.56676e-006 -0.151659 19.8853 69.4607 -20.8271 -8.13649 25.2327 3.48773 
54.1759 91.4607 5.24246 -4.63133 6.1482 -0.299832 -1.16551 -3.99596 0.345703 -2.30399 -3.99796 0.764093 -2.31126 -2.35374 0.802707 36.5132 23.3195 -15.1806 -15.6322 -1.61806 -2.38568 17.2855 -24.5175 -25.7769 -18.7303 43.4359 113.152 -1.40191e-007 1.62837e-007 -4.87659e-006 -10.1962 13.266 1.40523 2.14827e-006 -9.02842e-007 -2.99999 8.02916 -4.95147 0.697692 -64.0698 5.01275 -2.17333 -103.994 9.98634 -26.6982 -1.26672e-005 2.6983e-008 3.17021e-006 -6.92659 0.0571522 0.336037 2.58776e-005 -3.16577e-006 3.03243 -8.0289 -4.95146 -0.6977 -178.413 7.7673 -3.19411 -180 7.01589e-015 179.127 178.372 4.02704 179.951 5.17106e-006 1.72918e-006 0.0397034 -18.8308 68.1619 19.6589 8.13649 25.2327 -3.48773 -167.986 8.44274 -3.77329 4.54188e-006 -4.6773e-006 -0.897268 -1.62973 -7.68054 0.107809 -2.56043e-006 -2.56676e-006 -0.151784 19.8824 69.4578 -20.824 -8.13649 25.2327 3.48773 
54.1666 91.462 5.24393 -4.6324 6.15632 -0.308338 -1.17063 -4.00071 0.346136 -2.31414 -4.00754 0.764706 -2.32141 -2.36332 0.803443 36.4457 23.3091 -15.1748 -15.5421 -1.54426 -2.39148 17.1243 -24.5414 -25.8654 -19.0139 43.4877 113.547 -1.40191e-007 1.62837e-007 -4.87659e-006 -10.228 13.3848 1.43138 2.14827e-006 -9.02842e-007 -2.99999 8.02916 -4.95147 0.697692 -64.1279 4.98266 -2.14659 -103.917 9.99262 -26.6789 -1.26672e-005 2.6983e-008 3.17021e-006 -6.9604 0.0571377 0.341207 2.58776e-005 -3.16577e-006 3.03309 -8.0289 -4.95146 -0.6977 -178.406 7.77694 -3.20014 -180 7.01589e-015 179.127 178.375 4.03126 179.951 5.17106e-006 1.72918e-006 0.0396881 -18.83 68.161 19.6581 8.13649 25.2327 -3.48773 -167.98 8.43649 -3.77452 4.54188e-006 -4.6773e-006 -0.897159 -1.62838 -7.66344 0.107649 -2.56043e-006 -2.56676e-006 -0.15189 19.8791 69.4544 -20.8206 -8.13649 25.2327 3.48773 
54.1576 91.4447 5.24668 -4.63313 6.16384 -0.317153 -1.17565 -4.00529 0.346512 -2.32412 -4.01677 0.765241 -2.33138 -2.37256 0.804096 36.3804 23.2954 -15.1685 -15.4585 -1.46652 -2.39705 16.9644 -24.5643 -25.9525 -19.2946 43.539 113.938 -1.40191e-007 1.62837e-007 -4.87659e-006 -10.2586 13.5041 1.45741 2.14827e-006 -9.02842e-007 -2.99999 8.02916 -4.95147 0.697692 -64.1856 4.95205 -2.11965 -103.84 9.99919 -26.6591 -1.26672e-005 2.6983e-008 3.17021e-006 -6.99432 0.0571259 0.346367 2.58776e-005 -3.16577e-006 3.03374 -8.0289 -4.95146 -0.6977 -178.4 7.78606 -3.2058 -180 7.01589e-015 179.127 178.377 4.03543 179.951 5.17106e-006 1.72918e-006 0.0396729 -18.8293 68.1601 19.6572 8.13649 25.2327 -3.48773 -167.976 8.42925 -3.77544 4.54188e-006 -4.6773e-006 -0.897073 -1.62697 -7.64567 0.107498 -2.56043e-006 -2.56676e-006 -0.15197 19.8756 69.4508 -20.8168 -8.13649 25.2327 3.48773 
54.1596 91.4506 5.24651 -4.63353 6.17063 -0.32616 -1.18056 -4.00968 0.34684 -2.33387 -4.0256 0.765735 -2.34113 -2.38139 0.804706 36.3194 23.2778 -15.1622 -15.3842 -1.38521 -2.40235 16.8066 -24.5866 -26.0382 -19.5741 43.5895 114.325 -1.40191e-007 1.62837e-007 -4.87659e-006 -10.2881 13.6232 1.48321 2.14827e-006 -9.02842e-007 -2.99999 8.02916 -4.95147 0.697692 -64.2429 4.92123 -2.09271 -103.765 10.0059 -26.6391 -1.26672e-005 2.6983e-008 3.17021e-006 -7.02809 0.0571171 0.351439 2.58776e-005 -3.16577e-006 3.03435 -8.0289 -4.95146 -0.6977 -178.394 7.79448 -3.21104 -180 7.0159e-015 179.127 178.379 4.0395 179.951 5.17106e-006 1.72918e-006 0.0396577 -18.8285 68.1592 19.6563 8.13649 25.2327 -3.48773 -167.972 8.42095 -3.77599 4.54188e-006 -4.6773e-006 -0.897016 -1.62546 -7.62722 0.107362 -2.56043e-006 -2.56676e-006 -0.152016 19.8717 69.4467 -20.8126 -8.13649 25.2327 3.48773 
54.1508 91.4427 5.2497 -4.63359 6.17657 -0.335245 -1.18534 -4.01383 0.347129 -2.34336 -4.03394 0.766225 -2.35061 -2.38974 0.805309 36.2647 23.2562 -15.1563 -15.322 -1.30072 -2.40732 16.652 -24.6086 -26.1227 -19.854 43.6383 114.711 -1.40191e-007 1.62837e-007 -4.87659e-006 -10.3166 13.7415 1.5087 2.14827e-006 -9.02842e-007 -2.99999 8.02916 -4.95147 0.697692 -64.2999 4.89054 -2.06593 -103.692 10.0125 -26.6194 -1.26672e-005 2.6983e-008 3.17021e-006 -7.06141 0.0571115 0.356347 2.58776e-005 -3.16577e-006 3.03493 -8.0289 -4.95146 -0.6977 -178.388 7.80204 -3.21581 -180 7.0159e-015 179.127 178.381 4.04346 179.951 5.17106e-006 1.72918e-006 0.0396425 -18.8278 68.1583 19.6554 8.13649 25.2327 -3.48773 -167.968 8.4115 -3.77612 4.54188e-006 -4.6773e-006 -0.896992 -1.62381 -7.60811 0.107245 -2.56043e-006 -2.56676e-006 -0.15202 19.8674 69.4423 -20.8081 -8.13649 25.2327 3.48773 
54.1434 91.4441 5.2532 -4.63332 6.18152 -0.344293 -1.18996 -4.01772 0.34739 -2.35255 -4.04174 0.76675 -2.35979 -2.39754 0.805944 36.2184 23.2301 -15.151 -15.2746 -1.21344 -2.4119 16.5014 -24.6304 -26.2058 -20.136 43.6848 115.095 -1.40191e-007 1.62837e-007 -4.87659e-006 -10.3442 13.8584 1.53378 2.14827e-006 -9.02842e-007 -2.99999 8.02916 -4.95147 0.697692 -64.3566 4.86031 -2.03948 -103.62 10.0189 -26.6001 -1.26672e-005 2.6983e-008 3.17021e-006 -7.09401 0.0571093 0.361011 2.58776e-005 -3.16577e-006 3.03545 -8.0289 -4.95146 -0.6977 -178.383 7.80857 -3.22006 -180 7.0159e-015 179.128 178.382 4.04725 179.951 5.17106e-006 1.72918e-006 0.0396273 -18.827 68.1574 19.6546 8.13649 25.2327 -3.48773 -167.965 8.40082 -3.77578 4.54188e-006 -4.6773e-006 -0.897009 -1.62197 -7.58835 0.107151 -2.56043e-006 -2.56676e-006 -0.151975 19.8628 69.4375 -20.8032 -8.13649 25.2327 3.48773 
54.1364 91.4418 5.25497 -4.63272 6.18535 -0.353187 -1.19441 -4.02131 0.347629 -2.36137 -4.04891 0.767345 -2.36861 -2.40472 0.806648 36.1827 23.1991 -15.1469 -15.2449 -1.12374 -2.41604 16.3559 -24.6523 -26.2878 -20.4217 43.7283 115.48 -1.40191e-007 1.62837e-007 -4.87659e-006 -10.371 13.9731 1.55835 2.14827e-006 -9.02842e-007 -2.99999 8.02916 -4.95147 0.697692 -64.4132 4.83086 -2.01355 -103.55 10.0249 -26.5818 -1.26672e-005 2.6983e-008 3.17021e-006 -7.12561 0.0571109 0.365353 2.58776e-005 -3.16577e-006 3.03591 -8.0289 -4.95146 -0.6977 -178.378 7.81389 -3.22374 -180 7.0159e-015 179.128 178.383 4.05089 179.951 5.17106e-006 1.72918e-006 0.0396121 -18.8263 68.1565 19.6537 8.13649 25.2327 -3.48773 -167.963 8.38883 -3.77492 4.54188e-006 -4.6773e-006 -0.897071 -1.61989 -7.56795 0.107086 -2.56043e-006 -2.56676e-006 -0.151873 19.8578 69.4323 -20.7979 -8.13649 25.2327 3.48773 
54.1325 91.4396 5.25387 -4.63178 6.18795 -0.361814 -1.19865 -4.02456 0.347857 -2.3698 -4.05539 0.768049 -2.37704 -2.41121 0.807458 36.1595 23.163 -15.1443 -15.2355 -1.03202 -2.41968 16.2164 -24.6747 -26.3686 -20.7127 43.7681 115.867 -1.40191e-007 1.62837e-007 -4.87659e-006 -10.397 14.0849 1.58232 2.14827e-006 -9.02842e-007 -2.99999 8.02916 -4.95147 0.697692 -64.4696 4.80252 -1.98829 -103.483 10.0304 -26.5646 -1.26672e-005 2.6983e-008 3.17021e-006 -7.15593 0.0571164 0.369297 2.58776e-005 -3.16577e-006 3.03628 -8.0289 -4.95146 -0.6977 -178.374 7.81785 -3.2268 -180 7.0159e-015 179.128 178.384 4.0543 179.951 5.17106e-006 1.72918e-006 0.039597 -18.8256 68.1557 19.6529 8.13649 25.2327 -3.48773 -167.962 8.37545 -3.7735 4.54188e-006 -4.6773e-006 -0.897184 -1.61755 -7.54694 0.107054 -2.56043e-006 -2.56676e-006 -0.151707 19.8525 69.4267 -20.7922 -8.13649 25.2327 3.48773 
54.1256 91.4398 5.25651 -4.63052 6.18917 -0.370056 -1.20267 -4.02744 0.348083 -2.37777 -4.06111 0.768898 -2.38501 -2.41693 0.808414 36.1509 23.1214 -15.1435 -15.2493 -0.938657 -2.42277 16.0837 -24.6977 -26.4482 -21.0107 43.8034 116.256 -1.40191e-007 1.62837e-007 -4.87659e-006 -10.4225 14.1933 1.60561 2.14827e-006 -9.02842e-007 -2.99999 8.02916 -4.95147 0.697692 -64.5259 4.77561 -1.96388 -103.418 10.0351 -26.549 -1.26672e-005 2.6983e-008 3.17021e-006 -7.1847 0.0571262 0.372763 2.58776e-005 -3.16577e-006 3.03657 -8.0289 -4.95146 -0.6977 -178.37 7.82027 -3.2292 -180 7.0159e-015 179.128 178.385 4.05748 179.951 5.17106e-006 1.72918e-006 0.0395818 -18.8249 68.1549 19.6522 8.13649 25.2327 -3.48773 -167.961 8.3606 -3.77144 4.54188e-006 -4.6773e-006 -0.897354 -1.61488 -7.52531 0.107059 -2.56043e-006 -2.56676e-006 -0.151468 19.8467 69.4208 -20.7861 -8.13649 25.2327 3.48773 
